<svg xmlns="http://www.w3.org/2000/svg" viewBox="0 0 1440 320"><path fill="#fff" fill-opacity="1" d="M0,128L24,149.3C48,171,96,213,144,218.7C192,224,240,192,288,160C336,128,384,96,432,74.7C480,53,528,43,576,74.7C624,107,672,181,720,197.3C768,213,816,171,864,154.7C912,139,960,149,1008,133.3C1056,117,1104,75,1152,80C1200,85,1248,139,1296,160C1344,181,1392,171,1416,165.3L1440,160L1440,320L1416,320C1392,320,1344,320,1296,320C1248,320,1200,320,1152,320C1104,320,1056,320,1008,320C960,320,912,320,864,320C816,320,768,320,720,320C672,320,624,320,576,320C528,320,480,320,432,320C384,320,336,320,288,320C240,320,192,320,144,320C96,320,48,320,24,320L0,320Z"></path></svg>